<?xml version="1.0" encoding="UTF-8" standalone="no"?>
<svg xmlns="http://www.w3.org/2000/svg">
<symbol id="hist" viewBox="0 0 550 500">
		<g>
		<path d="m275.531 172.228-.05 120.493c0 4.575 1.816 8.948 5.046 12.177l86.198 86.181 24.354-24.354-81.153-81.136.05-113.361z"/><path d="m310.011 34.445c-121.23 0-221.563 90.033-238.367 206.674h-71.644l86.114 86.114 86.114-86.114h-65.78c16.477-97.589 101.355-172.228 203.563-172.228 113.966 0 206.674 92.707 206.674 206.674s-92.707 206.674-206.674 206.674c-64.064 0-123.469-28.996-162.978-79.555l-27.146 21.192c46.084 58.968 115.379 92.808 190.124 92.808 132.955 0 241.119-108.181 241.119-241.119s-108.164-241.119-241.119-241.12z"/>
		</g>
</symbol>
<symbol id="exp" viewBox="0 0 512 512">
	<g>
		<path d="M443.733,307.2c-9.426,0-17.067,7.641-17.067,17.067v102.4c0,9.426-7.641,17.067-17.067,17.067H68.267
			c-9.426,0-17.067-7.641-17.067-17.067v-102.4c0-9.426-7.641-17.067-17.067-17.067s-17.067,7.641-17.067,17.067v102.4
			c0,28.277,22.923,51.2,51.2,51.2H409.6c28.277,0,51.2-22.923,51.2-51.2v-102.4C460.8,314.841,453.159,307.2,443.733,307.2z"/>
		<path d="M335.947,295.134c-6.614-6.387-17.099-6.387-23.712,0L256,351.334V17.067C256,7.641,248.359,0,238.933,0
			s-17.067,7.641-17.067,17.067v334.268l-56.201-56.201c-6.78-6.548-17.584-6.36-24.132,0.419c-6.388,6.614-6.388,17.099,0,23.713
			l85.333,85.333c6.657,6.673,17.463,6.687,24.136,0.031c0.01-0.01,0.02-0.02,0.031-0.031l85.333-85.333
			C342.915,312.486,342.727,301.682,335.947,295.134z"/>
	</g>
</symbol>
<symbol id="ref" viewBox="0 0 492 492">
		<path d="m416.324219 293.824219c0 26.507812-21.492188 48-48 48h-313.375l63.199219-63.199219-22.625-22.625-90.511719 90.511719c-6.246094 6.25-6.246094 16.375 0 22.625l90.511719 90.511719 22.625-22.625-63.199219-63.199219h313.375c44.160156-.054688 79.945312-35.839844 80-80v-64h-32zm0 0"/><path d="m32.324219 165.824219c0-26.511719 21.488281-48 48-48h313.375l-63.199219 63.199219 22.625 22.625 90.511719-90.511719c6.246093-6.25 6.246093-16.375 0-22.625l-90.511719-90.511719-22.625 22.625 63.199219 63.199219h-313.375c-44.160157.050781-79.949219 35.839843-80 80v64h32zm0 0"/>
</symbol>
</svg>