<?xml version="1.0" encoding="UTF-8" standalone="no"?>
<svg xmlns="http://www.w3.org/2000/svg">
<symbol id="hist" viewBox="0 0 512 512">
		<g><path d="m144 249h-32c-8.284 0-15 6.716-15 15s6.716 15 15 15h32c8.284 0 15-6.716 15-15s-6.716-15-15-15z"/><path d="m144 313h-32c-8.284 0-15 6.716-15 15s6.716 15 15 15h32c8.284 0 15-6.716 15-15s-6.716-15-15-15z"/><path d="m144 377h-32c-8.284 0-15 6.716-15 15s6.716 15 15 15h32c8.284 0 15-6.716 15-15s-6.716-15-15-15z"/><path d="m272 249h-32c-8.284 0-15 6.716-15 15s6.716 15 15 15h32c8.284 0 15-6.716 15-15s-6.716-15-15-15z"/><path d="m272 313h-32c-8.284 0-15 6.716-15 15s6.716 15 15 15h32c8.284 0 15-6.716 15-15s-6.716-15-15-15z"/><path d="m272 377h-32c-8.284 0-15 6.716-15 15s6.716 15 15 15h32c8.284 0 15-6.716 15-15s-6.716-15-15-15z"/><path d="m400 249h-32c-8.284 0-15 6.716-15 15s6.716 15 15 15h32c8.284 0 15-6.716 15-15s-6.716-15-15-15z"/><path d="m400 313h-32c-8.284 0-15 6.716-15 15s6.716 15 15 15h32c8.284 0 15-6.716 15-15s-6.716-15-15-15z"/><path d="m400 377h-32c-8.284 0-15 6.716-15 15s6.716 15 15 15h32c8.284 0 15-6.716 15-15s-6.716-15-15-15z"/><path d="m467 65h-36v-25c0-8.284-6.716-15-15-15s-15 6.716-15 15v25h-130v-25c0-8.284-6.716-15-15-15s-15 6.716-15 15v25h-130v-25c0-8.284-6.716-15-15-15s-15 6.716-15 15v25h-36c-24.813 0-45 20.187-45 45v332c0 24.813 20.187 45 45 45h422c24.813 0 45-20.187 45-45 0-9.682 0-323.575 0-332 0-24.813-20.187-45-45-45zm-437 45c0-8.271 6.729-15 15-15h36v25c0 8.284 6.716 15 15 15s15-6.716 15-15v-25h130v25c0 8.284 6.716 15 15 15s15-6.716 15-15v-25h130v25c0 8.284 6.716 15 15 15s15-6.716 15-15v-25h36c8.271 0 15 6.729 15 15v59h-452zm437 347h-422c-8.271 0-15-6.729-15-15v-243h452v243c0 8.271-6.729 15-15 15z"/></g>
</symbol>

<symbol id="revert" viewBox="0 0 550 500">
		<g>
		<path d="m275.531 172.228-.05 120.493c0 4.575 1.816 8.948 5.046 12.177l86.198 86.181 24.354-24.354-81.153-81.136.05-113.361z"/><path d="m310.011 34.445c-121.23 0-221.563 90.033-238.367 206.674h-71.644l86.114 86.114 86.114-86.114h-65.78c16.477-97.589 101.355-172.228 203.563-172.228 113.966 0 206.674 92.707 206.674 206.674s-92.707 206.674-206.674 206.674c-64.064 0-123.469-28.996-162.978-79.555l-27.146 21.192c46.084 58.968 115.379 92.808 190.124 92.808 132.955 0 241.119-108.181 241.119-241.119s-108.164-241.119-241.119-241.12z"/>
		</g>
</symbol>


<symbol id="exp" viewBox="0 0 512 512">
	<g>
		<path d="M443.733,307.2c-9.426,0-17.067,7.641-17.067,17.067v102.4c0,9.426-7.641,17.067-17.067,17.067H68.267
			c-9.426,0-17.067-7.641-17.067-17.067v-102.4c0-9.426-7.641-17.067-17.067-17.067s-17.067,7.641-17.067,17.067v102.4
			c0,28.277,22.923,51.2,51.2,51.2H409.6c28.277,0,51.2-22.923,51.2-51.2v-102.4C460.8,314.841,453.159,307.2,443.733,307.2z"/>
		<path d="M335.947,295.134c-6.614-6.387-17.099-6.387-23.712,0L256,351.334V17.067C256,7.641,248.359,0,238.933,0
			s-17.067,7.641-17.067,17.067v334.268l-56.201-56.201c-6.78-6.548-17.584-6.36-24.132,0.419c-6.388,6.614-6.388,17.099,0,23.713
			l85.333,85.333c6.657,6.673,17.463,6.687,24.136,0.031c0.01-0.01,0.02-0.02,0.031-0.031l85.333-85.333
			C342.915,312.486,342.727,301.682,335.947,295.134z"/>
	</g>
</symbol>
<symbol id="ref" viewBox="0 0 492 492">
		<path d="m416.324219 293.824219c0 26.507812-21.492188 48-48 48h-313.375l63.199219-63.199219-22.625-22.625-90.511719 90.511719c-6.246094 6.25-6.246094 16.375 0 22.625l90.511719 90.511719 22.625-22.625-63.199219-63.199219h313.375c44.160156-.054688 79.945312-35.839844 80-80v-64h-32zm0 0"/><path d="m32.324219 165.824219c0-26.511719 21.488281-48 48-48h313.375l-63.199219 63.199219 22.625 22.625 90.511719-90.511719c6.246093-6.25 6.246093-16.375 0-22.625l-90.511719-90.511719-22.625 22.625 63.199219 63.199219h-313.375c-44.160157.050781-79.949219 35.839843-80 80v64h32zm0 0"/>
</symbol>

<symbol id="github" viewBox="0 0 512 512">
		<path d="M255.968,5.329C114.624,5.329,0,120.401,0,262.353c0,113.536,73.344,209.856,175.104,243.872
			c12.8,2.368,17.472-5.568,17.472-12.384c0-6.112-0.224-22.272-0.352-43.712c-71.2,15.52-86.24-34.464-86.24-34.464
			c-11.616-29.696-28.416-37.6-28.416-37.6c-23.264-15.936,1.728-15.616,1.728-15.616c25.696,1.824,39.2,26.496,39.2,26.496
			c22.848,39.264,59.936,27.936,74.528,21.344c2.304-16.608,8.928-27.936,16.256-34.368
			c-56.832-6.496-116.608-28.544-116.608-127.008c0-28.064,9.984-51.008,26.368-68.992c-2.656-6.496-11.424-32.64,2.496-68
			c0,0,21.504-6.912,70.4,26.336c20.416-5.696,42.304-8.544,64.096-8.64c21.728,0.128,43.648,2.944,64.096,8.672
			c48.864-33.248,70.336-26.336,70.336-26.336c13.952,35.392,5.184,61.504,2.56,68c16.416,17.984,26.304,40.928,26.304,68.992
			c0,98.72-59.84,120.448-116.864,126.816c9.184,7.936,17.376,23.616,17.376,47.584c0,34.368-0.32,62.08-0.32,70.496
			c0,6.88,4.608,14.88,17.6,12.352C438.72,472.145,512,375.857,512,262.353C512,120.401,397.376,5.329,255.968,5.329z"/>
</symbol>

<symbol id="documentation" viewBox="0 0 512 512">
		<g>
	<g>
		<path d="M447.229,67.855h-43.181v-43.18C404.049,11.103,392.944,0,379.379,0H64.771C51.2,0,40.097,11.103,40.097,24.675V419.47
			c0,13.571,11.103,24.675,24.675,24.675h43.181v43.181c0,13.571,11.098,24.675,24.675,24.675h209.729
			c13.565,0,32.762-7.612,42.638-16.908l68.929-64.882c9.888-9.296,17.969-28.012,17.969-41.583l0.012-296.096
			C471.904,78.959,460.8,67.855,447.229,67.855z M107.951,92.531v333.108h-43.18c-3.343,0-6.168-2.825-6.168-6.168V24.675
			c0-3.343,2.825-6.168,6.168-6.168H379.38c3.337,0,6.168,2.825,6.168,6.168v43.181H132.626
			C119.049,67.856,107.951,78.959,107.951,92.531z M441.24,416.737l-68.929,64.877c-1.412,1.327-3.251,2.628-5.281,3.867v-56.758
			c0-4.238,1.709-8.051,4.528-10.888c2.844-2.819,6.656-4.533,10.894-4.533h61.718C443.213,414.602,442.233,415.799,441.24,416.737z
			 M453.385,388.626c0,1.832-0.334,3.954-0.839,6.168h-70.095c-18.721,0.037-33.89,15.206-33.928,33.928v64.024
			c-2.202,0.445-4.324,0.746-6.168,0.746H132.626v0.001c-3.35,0-6.168-2.825-6.168-6.168V92.53c0-3.343,2.819-6.168,6.168-6.168
			h314.602c3.343,0,6.168,2.825,6.168,6.168L453.385,388.626z"/>
	</g>
</g>
<g>
	<g>
		<path d="M379.379,154.216H200.488c-5.114,0-9.253,4.139-9.253,9.253c0,5.114,4.14,9.253,9.253,9.253h178.891
			c5.108,0,9.253-4.139,9.253-9.253S384.487,154.216,379.379,154.216z"/>
	</g>
</g>
<g>
	<g>
		<path d="M379.379,277.59H200.488c-5.114,0-9.253,4.139-9.253,9.253c0,5.114,4.14,9.253,9.253,9.253h178.891
			c5.108,0,9.253-4.139,9.253-9.253C388.632,281.728,384.487,277.59,379.379,277.59z"/>
	</g>
</g>
<g>
	<g>
		<path d="M299.187,339.277h-98.698c-5.114,0-9.253,4.139-9.253,9.253s4.139,9.253,9.253,9.253h98.698
			c5.108,0,9.247-4.139,9.247-9.253S304.295,339.277,299.187,339.277z"/>
	</g>
</g>
<g>
	<g>
		<path d="M379.379,215.903H200.488c-5.114,0-9.253,4.139-9.253,9.253s4.14,9.253,9.253,9.253h178.891
			c5.108,0,9.253-4.139,9.253-9.253S384.487,215.903,379.379,215.903z"/>
	</g>
</g>
</symbol>

<symbol id="demo" viewBox="0 0 74 74">
		<path d="m71 38.56a1 1 0 0 1 -1-1v-3.65a1 1 0 0 1 2 0v3.65a1 1 0 0 1 -1 1z"/><path d="m69 72.01h-64a3 3 0 0 1 -3-3v-64a3 3 0 0 1 3-3h64a3 3 0 0 1 3 3v20.09a1 1 0 0 1 -2 0v-20.09a1 1 0 0 0 -1-1h-64a1 1 0 0 0 -1 1v64a1 1 0 0 0 1 1h64a1 1 0 0 0 1-1v-10.1a1 1 0 0 1 2 0v10.1a3 3 0 0 1 -3 3z"/><path d="m71 51.11a1 1 0 0 1 -1-1v-3.74a1 1 0 0 1 2 0v3.74a1 1 0 0 1 -1 1z"/><path d="m71 19.008h-68a1 1 0 0 1 0-2h68a1 1 0 0 1 0 2z"/><path d="m11.125 13.924a3.416 3.416 0 1 1 3.416-3.416 3.42 3.42 0 0 1 -3.416 3.416zm0-4.832a1.416 1.416 0 1 0 1.416 1.416 1.418 1.418 0 0 0 -1.416-1.416z"/><path d="m21.2 13.924a3.416 3.416 0 1 1 3.416-3.416 3.419 3.419 0 0 1 -3.416 3.416zm0-4.832a1.416 1.416 0 1 0 1.416 1.416 1.417 1.417 0 0 0 -1.416-1.416z"/><path d="m31.271 13.924a3.416 3.416 0 1 1 3.417-3.416 3.42 3.42 0 0 1 -3.417 3.416zm0-4.832a1.416 1.416 0 1 0 1.417 1.416 1.417 1.417 0 0 0 -1.417-1.416z"/><path d="m36.951 51.732c-3.962 0-7.066-6.136-7.066-13.97s3.1-13.97 7.066-13.97 7.067 6.136 7.067 13.97-3.104 13.97-7.067 13.97zm0-25.94c-2.4 0-5.066 4.916-5.066 11.97s2.67 11.97 5.066 11.97 5.067-4.916 5.067-11.97-2.67-11.97-5.067-11.97z"/><path d="m36.951 51.732a1 1 0 0 1 -1-1v-25.94a1 1 0 0 1 2 0v25.94a1 1 0 0 1 -1 1z"/><path d="m36.951 51.732a1 1 0 0 1 -1-1v-25.94a1 1 0 0 1 2 0v25.94a1 1 0 0 1 -1 1z"/><path d="m49.921 38.762h-25.94a1 1 0 0 1 0-2h25.94a1 1 0 0 1 0 2z"/><path d="m36.951 51.732a13.97 13.97 0 1 1 13.97-13.97 13.986 13.986 0 0 1 -13.97 13.97zm0-25.94a11.97 11.97 0 1 0 11.97 11.97 11.983 11.983 0 0 0 -11.97-11.97z"/><path d="m48.006 31.984h-22.106a1 1 0 0 1 0-2h22.106a1 1 0 0 1 0 2z"/><path d="m48.006 45.543h-22.106a1 1 0 0 1 0-2h22.106a1 1 0 0 1 0 2z"/><path d="m61.514 57.458h-49.125a1 1 0 1 1 0-2h49.125a1 1 0 1 1 0 2z"/><path d="m61.514 64.754h-49.125a1 1 0 1 1 0-2h49.125a1 1 0 0 1 0 2z"/>
</symbol>

<symbol id="lock" viewBox="0 0 471 471">
		<path d="M360.8,200.6v-74.7c0.2-33.8-13.3-66.3-37.4-90C300.1,12.7,269.6,0,237.3,0c-0.5,0-1.1,0-1.6,0
			c-68.9,0.1-124.9,56.5-124.9,125.9v74.7c-26,3.1-45,24.9-45,51.3v167.8c0,28.5,22.8,52,51.3,52h237.5c28.5,0,51.3-23.5,51.3-52
			V251.9C405.8,225.6,386.8,203.7,360.8,200.6z M130.7,125.9h0.1c0-58.4,47.1-106.2,105-106.2h0.1c27.5-0.1,53.9,10.8,73.4,30.2
			c20.3,20.1,31.6,47.5,31.4,76v74.8h-22v-74.8c0.2-22.7-8.8-44.5-24.9-60.5c-15.2-15.2-35.8-23.8-57.3-23.8h-0.6
			c-46,0-83.2,37.8-83.2,84.2v74.9h-22V125.9z M298.8,125.9v74.8h-126v-74.8c0-35.4,28.2-64.2,63.2-64.2h0.6
			c16.2,0,31.8,6.5,43.3,18C292.1,91.9,299,108.6,298.8,125.9z M386.8,420L386.8,420c0,17.5-14.2,31.7-31.7,31.7H117.5
			c-17.5,0-31.7-14.2-31.7-31.7V252.4c0-17.5,14.2-31.7,31.7-31.7h237.6c17.5,0,31.7,14.2,31.7,31.7V420z"/>
		<path d="M270.4,330c-4.4-15.5-18.5-26.1-34.6-26.1c-19.9,0-36.1,16.1-36.1,36.1c0,16.1,10.6,30.2,26.1,34.6v28c0,5.5,4.5,10,10,10
			s10-4.5,10-10v-28C264.9,369.1,276,349.1,270.4,330z M235.8,356c-8.9,0-16.1-7.2-16.1-16.1c0-8.9,7.2-16.1,16.1-16.1
			c8.9,0,16.1,7.2,16.1,16.1C251.9,348.8,244.7,356,235.8,356z"/>
</symbol>

<symbol id="idea" viewBox="0 0 510 510">
<g><path d="m255.417 65.563c4.143 0 7.5-3.357 7.5-7.5v-50.563c0-4.143-3.357-7.5-7.5-7.5s-7.5 3.357-7.5 7.5v50.563c0 4.143 3.357 7.5 7.5 7.5z"/><path d="m115.487 119.132c2.93 2.928 7.677 2.928 10.607 0 2.929-2.93 2.929-7.678 0-10.607l-35.754-35.755c-2.929-2.927-7.677-2.929-10.607 0-2.929 2.93-2.929 7.678 0 10.607z"/><path d="m65.027 240.953h-50.564c-4.143 0-7.5 3.357-7.5 7.5s3.357 7.5 7.5 7.5h50.563c4.143 0 7.5-3.357 7.5-7.5s-3.357-7.5-7.499-7.5z"/><path d="m115.487 377.775-35.754 35.754c-2.929 2.93-2.929 7.678 0 10.607 2.93 2.928 7.677 2.928 10.607 0l35.754-35.754c2.929-2.93 2.929-7.678 0-10.607-2.929-2.927-7.677-2.927-10.607 0z"/><path d="m395.346 377.775c-2.93-2.928-7.678-2.928-10.607 0-2.929 2.93-2.929 7.678 0 10.607l35.754 35.754c2.93 2.928 7.677 2.928 10.607 0 2.929-2.93 2.929-7.678 0-10.607z"/><path d="m496.37 240.953h-50.563c-4.143 0-7.5 3.357-7.5 7.5s3.357 7.5 7.5 7.5h50.563c4.143 0 7.5-3.357 7.5-7.5s-3.358-7.5-7.5-7.5z"/><path d="m420.493 72.77-35.754 35.755c-2.929 2.93-2.929 7.678 0 10.607 2.93 2.928 7.677 2.928 10.607 0l35.754-35.755c2.929-2.93 2.929-7.678 0-10.607-2.93-2.928-7.678-2.928-10.607 0z"/><path d="m403.579 233.293c0-82.872-66.465-150.293-148.162-150.293-28.618 0-56.394 8.293-80.324 23.982-23.282 15.265-41.842 36.74-53.673 62.103-1.751 3.754-.127 8.217 3.626 9.968 3.757 1.753 8.217.127 9.968-3.626 21.939-47.035 69.2-77.427 120.403-77.427 73.426 0 133.162 60.692 133.162 135.293 0 35.434-13.39 68.934-37.702 94.327-14.013 14.635-25.941 28.619-29.01 48.213h-130.939c-3.867-20.341-17.742-34.612-30.21-47.425-24.803-25.49-38.463-59.27-38.463-95.115 0-8.851.847-17.703 2.516-26.312.789-4.066-1.868-8.002-5.935-8.791-4.066-.783-8.002 1.869-8.791 5.936-1.852 9.547-2.79 19.36-2.79 29.167 0 39.775 15.169 77.27 42.713 105.576 15.819 16.256 27.017 29.232 27.017 48.251 0 .066.001.134.003.2l.43 44.013c0 14.279 7.617 26.812 19 33.752v8.248c0 20.678 16.822 37.5 37.5 37.5h46c20.678 0 37.5-16.822 37.5-37.5v-8.248c11.383-6.94 19-19.473 19-33.752 0 0-.053-49.026-.153-49.515 1.423-17.382 11.959-29.737 25.447-43.825 26.997-28.199 41.867-65.383 41.867-104.7zm-101.162 240.04c0 12.406-10.094 22.5-22.5 22.5h-46c-12.406 0-22.5-10.094-22.5-22.5v-2.891c1.799.252 3.633.391 5.5.391h80c1.867 0 3.701-.14 5.5-.391zm-5.5-17.5h-80c-13.51 0-24.5-10.99-24.5-24.5v-.5h76c4.143 0 7.5-3.357 7.5-7.5s-3.357-7.5-7.5-7.5h-76v-25h128.768l.232 25h-18c-4.143 0-7.5 3.357-7.5 7.5s3.357 7.5 7.5 7.5h18v.5c0 13.51-10.991 24.5-24.5 24.5z"/><path d="m304.177 234.285c-2.54 3.271-1.947 7.983 1.324 10.523 3.27 2.541 7.982 1.949 10.523-1.324l14.848-19.121c3.932-5.063 5.656-11.354 4.856-17.715-.801-6.361-4.03-12.029-9.094-15.961-5.063-3.932-11.358-5.666-17.715-4.855-6.361.8-12.029 4.029-15.96 9.093l-48.439 62.384-27.8-30.759c-8.875-9.816-24.082-10.582-33.897-1.711-4.756 4.299-7.553 10.192-7.877 16.595-.323 6.402 1.866 12.547 6.164 17.304l47.001 52c9.461 10.974 28.156 10.301 36.761-1.374l29.685-38.23c2.54-3.271 1.947-7.983-1.324-10.523s-7.982-1.949-10.523 1.324l-29.685 38.23c-3.222 4.378-10.253 4.633-13.785.515l-47-52c-3.328-3.682-3.04-9.384.643-12.712 3.68-3.324 9.383-3.04 12.711.643l33.8 37.396c2.946 3.416 8.802 3.22 11.488-.43l53.927-69.451c2.887-3.882 8.873-4.635 12.628-1.589 3.883 2.888 4.635 8.869 1.589 12.629z"/></g>
</symbol>

<symbol id="network" viewBox="0 0 480 480">
	<path d="M440,280c22.056,0,40-17.944,40-40c0-22.056-17.944-40-40-40c-8.136,0-15.696,2.472-22.024,6.664L351.312,140
			l66.664-66.664C424.304,77.528,431.864,80,440,80c22.056,0,40-17.944,40-40c0-22.056-17.944-40-40-40c-22.056,0-40,17.944-40,40
			c0,8.136,2.472,15.696,6.664,22.024L340,128.688l-66.664-66.664C277.528,55.696,280,48.136,280,40c0-22.056-17.944-40-40-40
			c-22.056,0-40,17.944-40,40c0,8.136,2.472,15.696,6.664,22.024L140,128.688L73.336,62.024C77.528,55.696,80,48.136,80,40
			C80,17.944,62.056,0,40,0C17.944,0,0,17.944,0,40c0,22.056,17.944,40,40,40c0.984,0,1.904-0.216,2.864-0.288l47.944,98.168
			l-28.784,28.784C55.696,202.472,48.136,200,40,200c-22.056,0-40,17.944-40,40c0,22.056,17.944,40,40,40
			c19.312,0,35.472-13.768,39.192-32h45.864l31.384,64.256l-94.416,94.408C55.696,402.472,48.136,400,40,400
			c-22.056,0-40,17.944-40,40c0,22.056,17.944,40,40,40c22.056,0,40-17.944,40-40c0-0.984-0.216-1.904-0.288-2.864l111.192-54.304
			l16.608,34.008C202.824,423.392,200,431.352,200,440c0,22.056,17.944,40,40,40c22.056,0,40-17.944,40-40
			c0-19.312-13.768-35.472-32-39.192v-45.864l64.256-31.384l94.408,94.408C402.472,424.304,400,431.864,400,440
			c0,22.056,17.944,40,40,40c22.056,0,40-17.944,40-40c0-22.056-17.944-40-40-40c-3.608,0-7.032,0.632-10.36,1.528l-56.432-107.736
			l43.632-21.312C423.392,277.176,431.352,280,440,280z M440,16c13.232,0,24,10.768,24,24s-10.768,24-24,24s-24-10.768-24-24
			S426.768,16,440,16z M40,264c-13.232,0-24-10.768-24-24s10.768-24,24-24s24,10.768,24,24S53.232,264,40,264z M40,464
			c-13.232,0-24-10.768-24-24s10.768-24,24-24s24,10.768,24,24S53.232,464,40,464z M440,416c13.232,0,24,10.768,24,24
			s-10.768,24-24,24s-24-10.768-24-24S426.768,416,440,416z M328.688,140l-23.648,23.648l-46.36-88.496
			c1.12-0.6,2.288-1.12,3.344-1.816L328.688,140z M300.96,190.352L322.776,232h-63.464L300.96,190.352z M248,220.688V89.24
			l45.184,86.264L248,220.688z M217.976,73.336c4.192,2.784,8.928,4.816,14.024,5.856v141.496L151.312,140L217.976,73.336z M40,64
			c-13.232,0-24-10.768-24-24s10.768-24,24-24s24,10.768,24,24S53.232,64,40,64z M58.488,75.256c1.184-0.624,2.416-1.184,3.536-1.92
			L128.688,140l-25.92,25.92L58.488,75.256z M79.192,232c-1.04-5.096-3.072-9.832-5.856-14.024l24.896-24.896L117.24,232H79.192z
			 M110.192,181.12L140,151.312L220.688,232H135.04L110.192,181.12z M142.856,248h77.832l-52.296,52.296L142.856,248z
			 M75.256,421.512c-0.624-1.184-1.184-2.416-1.92-3.536l90.52-90.52l20.024,41L75.256,421.512z M175.816,315.496L232,259.312
			v85.648l-33.744,16.48L175.816,315.496z M205.28,375.816L232,362.76v38.048c-4.384,0.896-8.416,2.64-12.152,4.84L205.28,375.816z
			 M264,440c0,13.232-10.768,24-24,24s-24-10.768-24-24s10.768-24,24-24S264,426.768,264,440z M240,64c-13.232,0-24-10.768-24-24
			s10.768-24,24-24s24,10.768,24,24S253.232,64,240,64z M248,337.144v-77.832l52.296,52.296L248,337.144z M259.312,248h71.848
			l20.24,38.648l-35.912,17.536L259.312,248z M410.192,398.88l-82.736-82.736l31.376-15.32L410.192,398.88z M365.792,279.624
			L349.224,248h51.592c0.896,4.384,2.64,8.416,4.84,12.152L365.792,279.624z M400.808,232H340.84l-28.024-53.504L340,151.312
			l66.664,66.664C403.88,222.168,401.848,226.904,400.808,232z M440,216c13.232,0,24,10.768,24,24s-10.768,24-24,24
			s-24-10.768-24-24S426.768,216,440,216z"/>
</symbol>

<symbol id="buddies" viewBox="0 0 510 510">
	path d="m358.366 315.939c1.085-3.998-1.275-8.118-5.273-9.203-3.987-1.085-8.117 1.274-9.203 5.272l-11.864 43.698c-1.085 3.998 1.275 8.118 5.273 9.203.657.179 1.318.264 1.97.264 3.302 0 6.326-2.197 7.233-5.537l2.919-10.753 153.241 32.007c.517.108 1.032.16 1.541.16 3.476 0 6.595-2.431 7.334-5.968.847-4.054-1.754-8.028-5.809-8.875l-152.37-31.826z"/><path d="m297.356 92.808v20.088c0 4.701 1.767 8.987 4.654 12.265v20.071c0 4.142 3.357 7.5 7.5 7.5s7.5-3.358 7.5-7.5v-13.739h7.57c4.161 0 7.995-1.391 11.097-3.709 2.818 2.106 6.244 3.427 9.969 3.652-.443 1.759-.681 3.599-.681 5.494 0 12.412 10.098 22.509 22.51 22.509h.172l-6.105 10.833c-2.033 3.608-.757 8.182 2.852 10.216s8.183.757 10.217-2.852l12.407-22.015c1.309-2.322 1.286-5.164-.059-7.466-1.345-2.301-3.81-3.716-6.476-3.716h-13.008c-4.141 0-7.51-3.369-7.51-7.51s3.369-7.509 7.51-7.509h39.42c9.995 0 18.126 8.131 18.126 18.125v20.871c0 5.188-2.228 10.135-6.112 13.573l-47.184 41.76c-3.334 2.952-5.714 6.784-6.881 11.08l-12.552 46.229c-1.085 3.998 1.275 8.118 5.273 9.203.657.179 1.318.264 1.97.264 3.302 0 6.326-2.197 7.233-5.537l12.552-46.229c.397-1.465 1.209-2.772 2.347-3.779l47.183-41.76c7.1-6.284 11.171-15.325 11.171-24.805v-20.871c0-8.704-3.38-16.63-8.889-22.548 2.804-3.253 4.509-7.478 4.509-12.101v-20.087c0-10.254-8.343-18.597-18.597-18.597h-8.628c-4.161 0-7.995 1.391-11.097 3.709-3.102-2.318-6.935-3.709-11.097-3.709h-8.629c-4.161 0-7.994 1.391-11.096 3.709-3.102-2.318-6.935-3.709-11.096-3.709h-8.628c-4.161 0-7.995 1.391-11.097 3.709-3.102-2.318-6.935-3.709-11.097-3.709h-8.628c-10.252 0-18.595 8.342-18.595 18.597zm111.061-3.597h8.628c1.983 0 3.597 1.613 3.597 3.597v20.088c0 1.646-1.118 3.022-2.63 3.448-3.477-1.242-7.218-1.925-11.116-1.925h-1.722c-.223-.47-.353-.983-.353-1.523v-20.088c-.001-1.984 1.612-3.597 3.596-3.597zm-30.823 0h8.629c1.983 0 3.597 1.613 3.597 3.597v20.088c0 .54-.13 1.054-.354 1.523h-15.115c-.223-.469-.353-.983-.353-1.523v-20.088c.001-1.984 1.614-3.597 3.596-3.597zm-30.82 0h8.628c1.983 0 3.597 1.613 3.597 3.597v20.088c0 1.983-1.613 3.597-3.597 3.597h-8.628c-1.983 0-3.597-1.613-3.597-3.597v-20.088c0-1.984 1.614-3.597 3.597-3.597zm-34.418 3.597c0-1.983 1.613-3.597 3.597-3.597h8.628c1.983 0 3.597 1.613 3.597 3.597v20.088c0 1.983-1.613 3.597-3.597 3.597h-8.628c-1.983 0-3.597-1.613-3.597-3.597z"/><path d="m506.821 491.036-224.64-83.977c-10.9-4.13-19.442-12.301-24.051-23.008-4.608-10.708-4.672-22.528-.179-33.284l58.479-139.97c.383-.916.58-1.898.58-2.891v-30.166c0-4.142-3.357-7.5-7.5-7.5s-7.5 3.358-7.5 7.5v28.663l-45.662 109.295-24.111-57.711c-1.598-3.823-5.989-5.625-9.812-4.029-3.821 1.597-5.626 5.99-4.028 9.812l29.823 71.383-4.108 9.833c-6.075 14.541-5.99 30.521.24 44.997.509 1.182 1.066 2.332 1.644 3.467-5.48 7.154-12.765 12.583-21.284 15.811l-217.846 81.779c-3.878 1.456-5.842 5.78-4.386 9.657 1.13 3.01 3.987 4.866 7.022 4.866.876 0 1.767-.154 2.635-.48l217.868-81.789c9.669-3.664 18.112-9.485 24.86-17.055 5.991 6.521 13.465 11.614 22.033 14.86l224.671 83.988c.865.323 1.752.477 2.625.477 3.039 0 5.899-1.861 7.026-4.876 1.451-3.88-.519-8.201-4.399-9.652z"/><path d="m7.494 381.05c.512 0 1.03-.053 1.551-.162l153.024-32.163 4.342 11.579c1.129 3.011 3.986 4.869 7.023 4.869.875 0 1.765-.154 2.633-.479 3.878-1.455 5.843-5.777 4.389-9.656l-48.377-129.006c-1.344-3.585-3.592-6.798-6.501-9.292l-59.362-50.875c-2.24-1.92-3.567-4.713-3.641-7.663l-.875-35.231c-.125-5 3.334-9.398 8.224-10.457l7.663-1.66v32.697c0 4.142 3.357 7.5 7.5 7.5s7.5-3.358 7.5-7.5v-57.582c0-1.472 1.197-2.669 2.669-2.669h8.123c1.472 0 2.669 1.197 2.669 2.669v3.819c0 4.142 3.357 7.5 7.5 7.5s7.5-3.358 7.5-7.5v-3.819c0-1.472 1.197-2.669 2.669-2.669h8.123c1.472 0 2.669 1.198 2.669 2.669v3.819c0 4.142 3.357 7.5 7.5 7.5s7.5-3.358 7.5-7.5v-3.819c0-1.472 1.197-2.669 2.669-2.669h8.123c1.472 0 2.669 1.198 2.669 2.669v3.819c0 4.142 3.357 7.5 7.5 7.5s7.5-3.358 7.5-7.5v-3.819c0-1.472 1.197-2.669 2.669-2.669h8.124c1.471 0 2.668 1.197 2.668 2.669v109.074c0 2.774.543 5.479 1.613 8.042l12.033 28.802c1.201 2.877 3.988 4.611 6.923 4.611.964 0 1.943-.187 2.889-.582 3.821-1.597 5.626-5.99 4.028-9.812l-12.032-28.802c-.302-.721-.454-1.481-.454-2.26v-109.073c0-9.743-7.926-17.669-17.668-17.669h-8.124c-3.786 0-7.29 1.208-10.169 3.243-2.879-2.036-6.383-3.244-10.169-3.244h-8.123c-3.787 0-7.29 1.208-10.169 3.244-2.879-2.036-6.382-3.244-10.169-3.244h-8.123c-3.787 0-7.29 1.208-10.169 3.244-2.879-2.036-6.382-3.244-10.169-3.244h-8.123c-9.743 0-17.669 7.926-17.669 17.669v9.538l-10.838 2.347c-11.918 2.581-20.348 13.301-20.045 25.49l.875 35.229c.179 7.191 3.414 14 8.876 18.681l59.361 50.875c.992.851 1.759 1.946 2.217 3.168l38.708 103.22-150.782 31.693c-4.054.852-6.648 4.829-5.797 8.882.743 3.534 3.859 5.959 7.332 5.959z"/><path d="m255.848 49.2c4.143 0 7.5-3.358 7.5-7.5v-28.067c0-4.142-3.357-7.5-7.5-7.5s-7.5 3.358-7.5 7.5v28.067c0 4.142 3.358 7.5 7.5 7.5z"/><path d="m284.78 55.432c1.031.484 2.115.713 3.184.713 2.817 0 5.517-1.595 6.794-4.314l7.35-15.649c1.761-3.749.148-8.216-3.601-9.977-3.749-1.759-8.216-.149-9.978 3.601l-7.35 15.649c-1.76 3.75-.148 8.217 3.601 9.977z"/><path d="m216.939 51.832c1.277 2.719 3.977 4.314 6.794 4.314 1.068 0 2.153-.229 3.184-.713 3.749-1.761 5.361-6.228 3.601-9.977l-7.35-15.649c-1.762-3.75-6.23-5.359-9.978-3.601-3.749 1.761-5.361 6.228-3.601 9.977z"/>
</symbol>

</svg>