<?xml version="1.0" encoding="UTF-8" standalone="no"?>
<svg width="100" height="100" xmlns="http://www.w3.org/2000/svg">
<rect x="3" y="3" width="94" height="94" fill="#bbbbbb" stroke="#222222" stroke-width="5" rx="20"/>
<path stroke="#222222" fill="#222222" d="m 9.4218863,59.902825 0.435296,2.938248 c 2.6117757,-0.435296 5.7676717,-1.08824 9.0323917,-1.850008 -1.741184,5.005903 -3.047072,9.794159 -3.047072,13.820647 0,10.991224 6.094144,13.276528 11.42652,13.276528 7.944152,0 13.494176,-6.202968 22.200095,-19.914792 L 46.857341,66.32344 c -8.161799,11.861816 -12.623583,17.41184 -18.064783,17.41184 -3.591192,0 -5.332376,-3.591192 -5.332376,-7.291208 0,-5.550024 1.958832,-11.644167 4.461784,-18.064783 16.758895,-5.332376 34.932503,-15.23536 34.932503,-33.626616 0,-6.529439 -3.26472,-10.664751 -9.576512,-10.664751 -13.385351,0 -25.355991,22.961863 -33.082495,43.311951 -3.80884,1.08824 -7.508856,1.850008 -10.7735757,2.502952 z M 52.516189,18.985002 c 2.7206,0 5.114728,1.63236 5.114728,6.855911 0,14.582416 -13.602999,23.39716 -28.076591,28.620712 l 2.7206,-6.747088 c 3.155896,-7.944152 11.42652,-28.729535 20.241263,-28.729535 z" />
<path stroke="#222222" fill="#222222" d="M 88.247881,37.470562 H 86.78167 c -1.162857,3.03354 -1.820124,4.095279 -4.499751,4.095279 h -7.027701 l -3.53913,0.151677 v -0.252795 l 6.673788,-6.319875 c 5.359254,-5.409813 8.241117,-8.898384 8.241117,-13.398135 0,-5.308695 -3.994161,-8.746706 -9.707328,-8.746706 -4.904223,0 -8.342235,2.831303 -9.909564,7.735526 l 1.213416,0.50559 c 1.870683,-3.791925 4.095279,-4.954782 7.381614,-4.954782 3.893043,0 6.319875,2.426832 6.319875,6.218757 0,5.308695 -2.52795,8.493912 -7.533291,13.65093 l -7.684968,7.684967 v 1.719006 h 19.920246 z" />
</svg>
